<svg width="32" height="32" viewBox="0 0 32 32" fill="none" xmlns="http://www.w3.org/2000/svg">
  <!-- Background circle with automotive blue -->
  <circle cx="16" cy="16" r="16" fill="#1e40af"/>
  
  <!-- Calculator body -->
  <rect x="8" y="6" width="16" height="20" rx="2" fill="white"/>
  
  <!-- Display screen -->
  <rect x="10" y="8" width="12" height="4" rx="1" fill="#f1f5f9"/>
  
  <!-- Calculator buttons grid -->
  <!-- Row 1 -->
  <rect x="10" y="14" width="2.5" height="2" rx="0.5" fill="#e2e8f0"/>
  <rect x="13.25" y="14" width="2.5" height="2" rx="0.5" fill="#e2e8f0"/>
  <rect x="16.5" y="14" width="2.5" height="2" rx="0.5" fill="#e2e8f0"/>
  <rect x="19.75" y="14" width="2.25" height="2" rx="0.5" fill="#1e40af"/>
  
  <!-- Row 2 -->
  <rect x="10" y="17" width="2.5" height="2" rx="0.5" fill="#e2e8f0"/>
  <rect x="13.25" y="17" width="2.5" height="2" rx="0.5" fill="#e2e8f0"/>
  <rect x="16.5" y="17" width="2.5" height="2" rx="0.5" fill="#e2e8f0"/>
  <rect x="19.75" y="17" width="2.25" height="2" rx="0.5" fill="#1e40af"/>
  
  <!-- Row 3 -->
  <rect x="10" y="20" width="2.5" height="2" rx="0.5" fill="#e2e8f0"/>
  <rect x="13.25" y="20" width="2.5" height="2" rx="0.5" fill="#e2e8f0"/>
  <rect x="16.5" y="20" width="2.5" height="2" rx="0.5" fill="#e2e8f0"/>
  <rect x="19.75" y="20" width="2.25" height="4" rx="0.5" fill="#10b981"/>
  
  <!-- Row 4 -->
  <rect x="10" y="23" width="5.75" height="2" rx="0.5" fill="#e2e8f0"/>
  <rect x="16.5" y="23" width="2.5" height="2" rx="0.5" fill="#e2e8f0"/>
</svg>